# xmcd CD database file
#
# Track frame offsets:
#	150
#	14699
#	30451
#	45153
#	54328
#	69857
#	87631
#	101364
#	113249
#	129108
#	143126
#	155403
#	163167
#
# Disc length: 2996 seconds
#
# Revision: 0
# Processed by: cddbd v1.5.2PL0 Copyright (c) Steve Scherf et al.
# Submitted via: CDex 1.70beta2
#
DISCID=9d0bb20d
DTITLE=La Bande à Bedoy - Jazzoune
DYEAR=2003
DGENRE=Jazz
TTITLE0=Down by the old meal stream
TTITLE1=Jazzoune
TTITLE2=Premier bal
TTITLE3=Sing Sing
TTITLE4=Buddy Bolden Stomp
TTITLE5=Ménilmontant
TTITLE6=Limehouse Blues
TTITLE7=Strutting with some barbecue
TTITLE8=Riverboat shuffle
TTITLE9=Passeport to paradise
TTITLE10=Petite fleur
TTITLE11=Sophie's
TTITLE12=When the saints go marchin' in
EXTD=YEAR: 2003
EXTT0=
EXTT1=
EXTT2=
EXTT3=
EXTT4=
EXTT5=
EXTT6=
EXTT7=
EXTT8=
EXTT9=
EXTT10=
EXTT11=
EXTT12=
PLAYORDER=
